HIERARCHY
ROOT Hips
{
	OFFSET -0.001795 -0.223333 0.028219
	CHANNELS 6 Xposition Yposition Zposition Zrotation Yrotation Xrotation 
	JOINT LeftUpLeg
	{
		OFFSET 0.069520 -0.091406 -0.006815
		CHANNELS 3 Zrotation Yrotation Xrotation
		JOINT LeftLeg
		{
			OFFSET 0.034277 -0.375199 -0.004496
			CHANNELS 3 Zrotation Yrotation Xrotation
			JOINT LeftFoot
			{
				OFFSET -0.013596 -0.397961 -0.043693
				CHANNELS 3 Zrotation Yrotation Xrotation
				JOINT LeftToe
				{
					OFFSET 0.026358 -0.055791 0.119288
					CHANNELS 3 Zrotation Yrotation Xrotation
					End Site
					{
						OFFSET 0.000000 0.000000 0.000000
					}
				}
			}
		}
	}
	JOINT RightUpLeg
	{
		OFFSET -0.067670 -0.090522 -0.004320
		CHANNELS 3 Zrotation Yrotation Xrotation
		JOINT RightLeg
		{
			OFFSET -0.038290 -0.382569 -0.008850
			CHANNELS 3 Zrotation Yrotation Xrotation
			JOINT RightFoot
			{
				OFFSET 0.015774 -0.398415 -0.042312
				CHANNELS 3 Zrotation Yrotation Xrotation
				JOINT RightToe
				{
					OFFSET -0.025372 -0.048144 0.123348
					CHANNELS 3 Zrotation Yrotation Xrotation
					End Site
					{
						OFFSET 0.000000 0.000000 0.000000
					}
				}
			}
		}
	}
	JOINT Spine
	{
		OFFSET -0.002533 0.108963 -0.026696
		CHANNELS 3 Zrotation Yrotation Xrotation
		JOINT Spine1
		{
			OFFSET 0.005487 0.135180 0.001092
			CHANNELS 3 Zrotation Yrotation Xrotation
			JOINT Spine2
			{
				OFFSET 0.001457 0.052922 0.025425
				CHANNELS 3 Zrotation Yrotation Xrotation
				JOINT Neck
				{
					OFFSET -0.002778 0.213870 -0.042857
					CHANNELS 3 Zrotation Yrotation Xrotation
					JOINT Head
					{
						OFFSET 0.005152 0.064970 0.051349
						CHANNELS 3 Zrotation Yrotation Xrotation
						End Site
						{
							OFFSET 0.000000 0.000000 0.000000
						}
					}
				}
				JOINT LeftShoulder
				{
					OFFSET 0.078845 0.121749 -0.034090
					CHANNELS 3 Zrotation Yrotation Xrotation
					JOINT LeftArm
					{
						OFFSET 0.090977 0.030469 -0.008868
						CHANNELS 3 Zrotation Yrotation Xrotation
						JOINT LeftForeArm
						{
							OFFSET 0.259612 -0.012772 -0.027456
							CHANNELS 3 Zrotation Yrotation Xrotation
							JOINT LeftHand
							{
								OFFSET 0.249234 0.008986 -0.001171
								CHANNELS 3 Zrotation Yrotation Xrotation
								End Site
								{
									OFFSET 0.000000 0.000000 0.000000
								}
							}
						}
					}
				}
				JOINT RightShoulder
				{
					OFFSET -0.081759 0.118833 -0.038615
					CHANNELS 3 Zrotation Yrotation Xrotation
					JOINT RightArm
					{
						OFFSET -0.096012 0.032551 -0.009143
						CHANNELS 3 Zrotation Yrotation Xrotation
						JOINT RightForeArm
						{
							OFFSET -0.253742 -0.013329 -0.021401
							CHANNELS 3 Zrotation Yrotation Xrotation
							JOINT RightHand
							{
								OFFSET -0.255298 0.007772 -0.005559
								CHANNELS 3 Zrotation Yrotation Xrotation
								End Site
								{
									OFFSET 0.000000 0.000000 0.000000
								}
							}
						}
					}
				}
			}
		}
	}
}
MOTION
Frames: 7
Frame Time: 0.050000
0.133550 0.920885 0.466784 -0.988323 7.753944 3.178250 11.874526 -0.405201 -17.235243 -5.995719 0.633182 11.228804 5.846110 14.635161 11.563591 0.000000 0.000000 0.000000 -11.725362 0.004674 -11.764558 8.459727 -1.387973 7.100477 -7.083470 -17.396181 11.805079 0.000000 0.000000 0.000000 -2.521172 -2.128349 42.451131 -5.461988 1.909683 -26.874980 -4.283256 10.528694 22.743152 17.584372 -2.575867 -43.456303 0.000000 0.000000 0.000000 -8.398709 -32.197915 11.097698 -30.259527 -42.485796 4.541131 44.292392 -68.161474 -30.262213 0.000000 0.000000 0.000000 18.725643 17.844374 12.275143 45.469108 59.399221 18.819970 -36.687015 63.560675 -16.204963 0.000000 0.000000 0.000000 
0.133371 0.921339 0.465670 -1.057223 8.016635 3.383264 11.897348 -0.421580 -17.308546 -5.916123 0.611093 10.783303 5.888395 14.742994 11.674933 0.000000 0.000000 0.000000 -11.694713 -0.001111 -12.083071 8.331880 -1.375415 7.204385 -6.789083 -16.820633 11.813523 0.000000 0.000000 0.000000 -2.293049 -2.276794 42.586669 -5.275767 1.874271 -26.805943 -4.333128 10.596700 22.593784 17.880316 -2.748292 -43.034933 0.000000 0.000000 0.000000 -8.969446 -32.766992 11.389215 -29.719791 -42.565960 4.456397 45.153094 -67.791937 -30.678121 0.000000 0.000000 0.000000 19.233516 18.130378 12.636519 44.576915 59.492473 18.309375 -37.221151 62.749192 -16.294497 0.000000 0.000000 0.000000 
0.133323 0.921759 0.464817 -0.978731 8.213829 3.550680 11.749057 -0.450202 -17.322877 -5.775537 0.580776 10.333876 5.973214 14.904681 11.754316 0.000000 0.000000 0.000000 -11.742329 -0.013136 -12.246662 8.344363 -1.378508 7.100132 -6.824553 -16.867858 11.789519 0.000000 0.000000 0.000000 -1.874560 -2.485576 42.670694 -5.362533 1.890777 -26.860685 -4.441016 10.669091 22.633704 18.240454 -2.937923 -42.748060 0.000000 0.000000 0.000000 -9.677503 -33.292909 11.689735 -29.363887 -42.606373 4.409846 45.285143 -67.623850 -30.649716 0.000000 0.000000 0.000000 20.105219 17.988021 12.873953 44.378986 59.059104 17.835004 -37.254029 62.400446 -16.146890 0.000000 0.000000 0.000000 
0.133332 0.922153 0.464533 -0.917166 8.349129 3.717878 11.716825 -0.464352 -17.344658 -5.666145 0.558382 10.170852 5.948407 14.843675 11.560149 0.000000 0.000000 0.000000 -11.834280 -0.028737 -12.495043 8.470586 -1.415026 7.252441 -6.726708 -16.673372 11.529593 0.000000 0.000000 0.000000 -1.735496 -2.554165 42.586527 -5.154038 1.856054 -26.672720 -4.538204 10.738582 22.503470 18.551831 -3.181948 -42.064350 0.000000 0.000000 0.000000 -10.370009 -33.688390 11.938322 -29.106575 -42.090532 4.293973 45.939929 -67.918142 -31.297057 0.000000 0.000000 0.000000 21.266279 18.040159 13.307655 44.018861 58.159410 17.003310 -36.256807 61.951651 -15.387380 0.000000 0.000000 0.000000 
0.133312 0.922657 0.464785 -0.806785 8.468464 3.760276 11.605521 -0.479635 -17.159119 -5.601025 0.543953 10.119453 5.953477 14.870924 11.627829 0.000000 0.000000 0.000000 -11.921968 -0.044480 -12.550644 8.511077 -1.416327 7.058564 -6.784135 -16.767541 11.706305 0.000000 0.000000 0.000000 -1.478505 -2.684752 42.667531 -5.160176 1.855896 -26.746196 -4.444618 10.600723 22.689931 18.539609 -3.274048 -41.690939 0.000000 0.000000 0.000000 -10.929075 -33.702626 12.043744 -29.256533 -41.420857 4.229554 45.986068 -68.607945 -31.678708 0.000000 0.000000 0.000000 22.229098 17.879180 13.499737 44.563202 57.093765 16.572522 -33.793340 62.054126 -13.903031 0.000000 0.000000 0.000000 
0.133292 0.923190 0.465404 -0.607438 8.482135 3.843937 11.429251 -0.497766 -17.043249 -5.698244 0.560451 10.148431 6.035173 15.002943 11.672660 0.000000 0.000000 0.000000 -12.101537 -0.065586 -12.622073 8.641191 -1.442983 7.073779 -6.671364 -16.556205 11.646019 0.000000 0.000000 0.000000 -1.337103 -2.715125 42.417254 -5.002626 1.833628 -26.466049 -4.601333 10.589832 22.677369 18.638139 -3.365702 -41.414171 0.000000 0.000000 0.000000 -11.474250 -33.685863 12.104839 -29.198570 -40.564780 4.088302 45.037638 -68.931598 -31.168932 0.000000 0.000000 0.000000 23.344374 17.601562 13.702158 45.219784 55.923742 16.146346 -31.442369 62.149703 -12.465512 0.000000 0.000000 0.000000 
0.133319 0.923679 0.466096 -0.523384 8.419595 3.866648 11.333195 -0.503131 -16.935606 -5.756473 0.572047 10.265536 6.280938 15.391982 11.797520 0.000000 0.000000 0.000000 -12.066170 -0.059749 -12.688457 8.553024 -1.420941 7.029797 -6.774109 -16.752724 11.764271 0.000000 0.000000 0.000000 -1.000994 -2.816344 42.182181 -5.095926 1.853989 -26.417301 -4.567708 10.568111 22.759222 18.740228 -3.531076 -40.875672 0.000000 0.000000 0.000000 -12.121013 -33.507619 12.118782 -29.066095 -39.445933 3.871896 43.766563 -69.400674 -30.480139 0.000000 0.000000 0.000000 24.181540 17.151586 13.684045 45.674416 54.662121 15.583304 -28.800544 62.934500 -11.007792 0.000000 0.000000 0.000000 
